<mxfile host="app.diagrams.net" agent="Mozilla/5.0 (Windows NT 10.0; Win64; x64) AppleWebKit/537.36 (KHTML, like Gecko) Chrome/133.0.0.0 Safari/537.36" version="26.0.11">
  <diagram name="Page-1" id="yk16_oV5Qiu1EBVDp5B5">
    <mxGraphModel dx="991" dy="578" grid="1" gridSize="10" guides="1" tooltips="1" connect="1" arrows="1" fold="1" page="1" pageScale="1" pageWidth="850" pageHeight="1100" math="0" shadow="0">
      <root>
        <mxCell id="0" />
        <mxCell id="1" parent="0" />
        <mxCell id="9a0sQmynmuVLSiHbKFcN-1" value="" style="rounded=1;whiteSpace=wrap;html=1;absoluteArcSize=1;arcSize=14;strokeWidth=2;" vertex="1" parent="1">
          <mxGeometry x="370" y="162" width="100" height="100" as="geometry" />
        </mxCell>
        <mxCell id="9a0sQmynmuVLSiHbKFcN-6" value="" style="endArrow=none;html=1;rounded=0;entryX=1;entryY=0.3;entryDx=0;entryDy=0;entryPerimeter=0;" edge="1" parent="1" target="9a0sQmynmuVLSiHbKFcN-1">
          <mxGeometry width="50" height="50" relative="1" as="geometry">
            <mxPoint x="370" y="192" as="sourcePoint" />
            <mxPoint x="420" y="142" as="targetPoint" />
          </mxGeometry>
        </mxCell>
        <mxCell id="9a0sQmynmuVLSiHbKFcN-8" value="" style="rounded=1;whiteSpace=wrap;html=1;absoluteArcSize=1;arcSize=14;strokeWidth=2;" vertex="1" parent="1">
          <mxGeometry x="380" y="322" width="80" height="90" as="geometry" />
        </mxCell>
        <mxCell id="9a0sQmynmuVLSiHbKFcN-10" value="" style="endArrow=none;html=1;rounded=0;" edge="1" parent="1">
          <mxGeometry width="50" height="50" relative="1" as="geometry">
            <mxPoint x="421" y="302" as="sourcePoint" />
            <mxPoint x="421" y="262" as="targetPoint" />
            <Array as="points">
              <mxPoint x="421" y="292" />
            </Array>
          </mxGeometry>
        </mxCell>
        <mxCell id="9a0sQmynmuVLSiHbKFcN-11" value="" style="endArrow=none;html=1;rounded=0;" edge="1" parent="1">
          <mxGeometry width="50" height="50" relative="1" as="geometry">
            <mxPoint x="200" y="302" as="sourcePoint" />
            <mxPoint x="640" y="302" as="targetPoint" />
          </mxGeometry>
        </mxCell>
        <mxCell id="9a0sQmynmuVLSiHbKFcN-12" value="0" style="text;html=1;align=center;verticalAlign=middle;whiteSpace=wrap;rounded=0;" vertex="1" parent="1">
          <mxGeometry x="390" y="162" width="60" height="30" as="geometry" />
        </mxCell>
        <mxCell id="9a0sQmynmuVLSiHbKFcN-13" value="Penginputan&lt;div&gt;data pegawai&lt;/div&gt;" style="text;html=1;align=center;verticalAlign=middle;whiteSpace=wrap;rounded=0;" vertex="1" parent="1">
          <mxGeometry x="380" y="212" width="80" height="30" as="geometry" />
        </mxCell>
        <mxCell id="9a0sQmynmuVLSiHbKFcN-14" value="" style="endArrow=classic;html=1;rounded=0;" edge="1" parent="1">
          <mxGeometry width="50" height="50" relative="1" as="geometry">
            <mxPoint x="200" y="302" as="sourcePoint" />
            <mxPoint x="200" y="322" as="targetPoint" />
          </mxGeometry>
        </mxCell>
        <mxCell id="9a0sQmynmuVLSiHbKFcN-15" value="" style="endArrow=classic;html=1;rounded=0;" edge="1" parent="1">
          <mxGeometry width="50" height="50" relative="1" as="geometry">
            <mxPoint x="421" y="302" as="sourcePoint" />
            <mxPoint x="421" y="322" as="targetPoint" />
          </mxGeometry>
        </mxCell>
        <mxCell id="9a0sQmynmuVLSiHbKFcN-18" value="" style="endArrow=none;html=1;rounded=0;entryX=1.005;entryY=0.329;entryDx=0;entryDy=0;entryPerimeter=0;" edge="1" parent="1" target="9a0sQmynmuVLSiHbKFcN-8">
          <mxGeometry width="50" height="50" relative="1" as="geometry">
            <mxPoint x="379" y="352" as="sourcePoint" />
            <mxPoint x="460.5200000000001" y="351.52" as="targetPoint" />
          </mxGeometry>
        </mxCell>
        <mxCell id="9a0sQmynmuVLSiHbKFcN-20" value="" style="rounded=1;whiteSpace=wrap;html=1;absoluteArcSize=1;arcSize=14;strokeWidth=2;" vertex="1" parent="1">
          <mxGeometry x="600" y="322" width="80" height="90" as="geometry" />
        </mxCell>
        <mxCell id="9a0sQmynmuVLSiHbKFcN-21" value="" style="endArrow=none;html=1;rounded=0;entryX=1.005;entryY=0.329;entryDx=0;entryDy=0;entryPerimeter=0;" edge="1" parent="1" target="9a0sQmynmuVLSiHbKFcN-20">
          <mxGeometry width="50" height="50" relative="1" as="geometry">
            <mxPoint x="599" y="352" as="sourcePoint" />
            <mxPoint x="680.5200000000001" y="351.52" as="targetPoint" />
          </mxGeometry>
        </mxCell>
        <mxCell id="9a0sQmynmuVLSiHbKFcN-28" value="" style="rounded=1;whiteSpace=wrap;html=1;absoluteArcSize=1;arcSize=14;strokeWidth=2;" vertex="1" parent="1">
          <mxGeometry x="159" y="322" width="80" height="90" as="geometry" />
        </mxCell>
        <mxCell id="9a0sQmynmuVLSiHbKFcN-29" value="" style="endArrow=none;html=1;rounded=0;entryX=1.005;entryY=0.329;entryDx=0;entryDy=0;entryPerimeter=0;" edge="1" parent="1" target="9a0sQmynmuVLSiHbKFcN-28">
          <mxGeometry width="50" height="50" relative="1" as="geometry">
            <mxPoint x="158" y="352" as="sourcePoint" />
            <mxPoint x="239.5200000000001" y="351.52" as="targetPoint" />
          </mxGeometry>
        </mxCell>
        <mxCell id="9a0sQmynmuVLSiHbKFcN-30" value="" style="endArrow=classic;html=1;rounded=0;" edge="1" parent="1">
          <mxGeometry width="50" height="50" relative="1" as="geometry">
            <mxPoint x="640" y="302" as="sourcePoint" />
            <mxPoint x="640" y="322" as="targetPoint" />
          </mxGeometry>
        </mxCell>
        <mxCell id="9a0sQmynmuVLSiHbKFcN-31" value="1" style="text;html=1;align=center;verticalAlign=middle;whiteSpace=wrap;rounded=0;" vertex="1" parent="1">
          <mxGeometry x="169" y="322" width="60" height="30" as="geometry" />
        </mxCell>
        <mxCell id="9a0sQmynmuVLSiHbKFcN-32" value="2" style="text;html=1;align=center;verticalAlign=middle;whiteSpace=wrap;rounded=0;" vertex="1" parent="1">
          <mxGeometry x="390" y="322" width="60" height="30" as="geometry" />
        </mxCell>
        <mxCell id="9a0sQmynmuVLSiHbKFcN-33" value="3" style="text;html=1;align=center;verticalAlign=middle;whiteSpace=wrap;rounded=0;" vertex="1" parent="1">
          <mxGeometry x="610" y="322" width="60" height="30" as="geometry" />
        </mxCell>
        <mxCell id="9a0sQmynmuVLSiHbKFcN-35" value="Admin" style="text;html=1;align=center;verticalAlign=middle;whiteSpace=wrap;rounded=0;" vertex="1" parent="1">
          <mxGeometry x="159" y="362" width="80" height="30" as="geometry" />
        </mxCell>
        <mxCell id="9a0sQmynmuVLSiHbKFcN-36" value="Pimpinan" style="text;html=1;align=center;verticalAlign=middle;whiteSpace=wrap;rounded=0;" vertex="1" parent="1">
          <mxGeometry x="380" y="362" width="80" height="30" as="geometry" />
        </mxCell>
        <mxCell id="9a0sQmynmuVLSiHbKFcN-37" value="Pegawai" style="text;html=1;align=center;verticalAlign=middle;whiteSpace=wrap;rounded=0;" vertex="1" parent="1">
          <mxGeometry x="600" y="362" width="80" height="30" as="geometry" />
        </mxCell>
        <mxCell id="9a0sQmynmuVLSiHbKFcN-38" value="" style="endArrow=none;html=1;rounded=0;" edge="1" parent="1">
          <mxGeometry width="50" height="50" relative="1" as="geometry">
            <mxPoint x="420" y="442" as="sourcePoint" />
            <mxPoint x="420" y="412" as="targetPoint" />
          </mxGeometry>
        </mxCell>
        <mxCell id="9a0sQmynmuVLSiHbKFcN-39" value="" style="endArrow=none;html=1;rounded=0;" edge="1" parent="1">
          <mxGeometry width="50" height="50" relative="1" as="geometry">
            <mxPoint x="640" y="560" as="sourcePoint" />
            <mxPoint x="639.85" y="412" as="targetPoint" />
          </mxGeometry>
        </mxCell>
        <mxCell id="9a0sQmynmuVLSiHbKFcN-40" value="" style="endArrow=none;html=1;rounded=0;entryX=0.517;entryY=1.007;entryDx=0;entryDy=0;entryPerimeter=0;" edge="1" parent="1" target="9a0sQmynmuVLSiHbKFcN-28">
          <mxGeometry width="50" height="50" relative="1" as="geometry">
            <mxPoint x="200" y="560" as="sourcePoint" />
            <mxPoint x="199" y="412" as="targetPoint" />
          </mxGeometry>
        </mxCell>
        <mxCell id="9a0sQmynmuVLSiHbKFcN-41" value="" style="endArrow=none;html=1;rounded=0;" edge="1" parent="1">
          <mxGeometry width="50" height="50" relative="1" as="geometry">
            <mxPoint x="270" y="440" as="sourcePoint" />
            <mxPoint x="570" y="440" as="targetPoint" />
          </mxGeometry>
        </mxCell>
        <mxCell id="9a0sQmynmuVLSiHbKFcN-42" value="" style="rounded=1;whiteSpace=wrap;html=1;absoluteArcSize=1;arcSize=14;strokeWidth=2;" vertex="1" parent="1">
          <mxGeometry x="246" y="460" width="49.7" height="60" as="geometry" />
        </mxCell>
        <mxCell id="9a0sQmynmuVLSiHbKFcN-47" value="" style="endArrow=classic;html=1;rounded=0;entryX=0.486;entryY=-0.026;entryDx=0;entryDy=0;entryPerimeter=0;" edge="1" parent="1" target="9a0sQmynmuVLSiHbKFcN-42">
          <mxGeometry width="50" height="50" relative="1" as="geometry">
            <mxPoint x="270" y="440" as="sourcePoint" />
            <mxPoint x="270" y="450" as="targetPoint" />
          </mxGeometry>
        </mxCell>
        <mxCell id="9a0sQmynmuVLSiHbKFcN-48" value="" style="endArrow=classic;html=1;rounded=0;entryX=0.486;entryY=-0.026;entryDx=0;entryDy=0;entryPerimeter=0;" edge="1" parent="1">
          <mxGeometry width="50" height="50" relative="1" as="geometry">
            <mxPoint x="570" y="440" as="sourcePoint" />
            <mxPoint x="570" y="458" as="targetPoint" />
          </mxGeometry>
        </mxCell>
        <mxCell id="9a0sQmynmuVLSiHbKFcN-49" value="" style="rounded=1;whiteSpace=wrap;html=1;absoluteArcSize=1;arcSize=14;strokeWidth=2;" vertex="1" parent="1">
          <mxGeometry x="545.3" y="460" width="49.7" height="60" as="geometry" />
        </mxCell>
        <mxCell id="9a0sQmynmuVLSiHbKFcN-50" value="" style="rounded=1;whiteSpace=wrap;html=1;absoluteArcSize=1;arcSize=14;strokeWidth=2;" vertex="1" parent="1">
          <mxGeometry x="340.3" y="460" width="49.7" height="60" as="geometry" />
        </mxCell>
        <mxCell id="9a0sQmynmuVLSiHbKFcN-51" value="" style="rounded=1;whiteSpace=wrap;html=1;absoluteArcSize=1;arcSize=14;strokeWidth=2;" vertex="1" parent="1">
          <mxGeometry x="450" y="460" width="49.7" height="60" as="geometry" />
        </mxCell>
        <mxCell id="9a0sQmynmuVLSiHbKFcN-52" value="" style="endArrow=classic;html=1;rounded=0;entryX=0.486;entryY=-0.026;entryDx=0;entryDy=0;entryPerimeter=0;" edge="1" parent="1">
          <mxGeometry width="50" height="50" relative="1" as="geometry">
            <mxPoint x="364" y="440" as="sourcePoint" />
            <mxPoint x="364" y="458" as="targetPoint" />
          </mxGeometry>
        </mxCell>
        <mxCell id="9a0sQmynmuVLSiHbKFcN-55" value="" style="endArrow=classic;html=1;rounded=0;entryX=0.486;entryY=-0.026;entryDx=0;entryDy=0;entryPerimeter=0;" edge="1" parent="1">
          <mxGeometry width="50" height="50" relative="1" as="geometry">
            <mxPoint x="474" y="440" as="sourcePoint" />
            <mxPoint x="474" y="458" as="targetPoint" />
          </mxGeometry>
        </mxCell>
        <mxCell id="9a0sQmynmuVLSiHbKFcN-57" value="" style="endArrow=none;html=1;rounded=0;entryX=0.967;entryY=0.334;entryDx=0;entryDy=0;entryPerimeter=0;" edge="1" parent="1">
          <mxGeometry width="50" height="50" relative="1" as="geometry">
            <mxPoint x="247" y="480" as="sourcePoint" />
            <mxPoint x="295.0599" y="480.03999999999996" as="targetPoint" />
          </mxGeometry>
        </mxCell>
        <mxCell id="9a0sQmynmuVLSiHbKFcN-58" value="" style="endArrow=none;html=1;rounded=0;entryX=0.967;entryY=0.334;entryDx=0;entryDy=0;entryPerimeter=0;" edge="1" parent="1">
          <mxGeometry width="50" height="50" relative="1" as="geometry">
            <mxPoint x="340.94" y="480" as="sourcePoint" />
            <mxPoint x="388.9999" y="480.03999999999996" as="targetPoint" />
          </mxGeometry>
        </mxCell>
        <mxCell id="9a0sQmynmuVLSiHbKFcN-59" value="" style="endArrow=none;html=1;rounded=0;entryX=0.967;entryY=0.334;entryDx=0;entryDy=0;entryPerimeter=0;" edge="1" parent="1">
          <mxGeometry width="50" height="50" relative="1" as="geometry">
            <mxPoint x="450.64" y="480" as="sourcePoint" />
            <mxPoint x="498.6999" y="480.03999999999996" as="targetPoint" />
          </mxGeometry>
        </mxCell>
        <mxCell id="9a0sQmynmuVLSiHbKFcN-61" value="" style="endArrow=none;html=1;rounded=0;entryX=0.967;entryY=0.334;entryDx=0;entryDy=0;entryPerimeter=0;" edge="1" parent="1">
          <mxGeometry width="50" height="50" relative="1" as="geometry">
            <mxPoint x="546.3" y="480" as="sourcePoint" />
            <mxPoint x="594.3599" y="480.03999999999996" as="targetPoint" />
          </mxGeometry>
        </mxCell>
        <mxCell id="9a0sQmynmuVLSiHbKFcN-62" value="" style="endArrow=none;html=1;rounded=0;" edge="1" parent="1">
          <mxGeometry width="50" height="50" relative="1" as="geometry">
            <mxPoint x="48.5" y="560" as="sourcePoint" />
            <mxPoint x="348.5" y="560" as="targetPoint" />
          </mxGeometry>
        </mxCell>
        <mxCell id="9a0sQmynmuVLSiHbKFcN-63" value="" style="rounded=1;whiteSpace=wrap;html=1;absoluteArcSize=1;arcSize=14;strokeWidth=2;" vertex="1" parent="1">
          <mxGeometry x="24.5" y="580" width="49.7" height="60" as="geometry" />
        </mxCell>
        <mxCell id="9a0sQmynmuVLSiHbKFcN-64" value="" style="endArrow=classic;html=1;rounded=0;entryX=0.486;entryY=-0.026;entryDx=0;entryDy=0;entryPerimeter=0;" edge="1" parent="1" target="9a0sQmynmuVLSiHbKFcN-63">
          <mxGeometry width="50" height="50" relative="1" as="geometry">
            <mxPoint x="48.5" y="560" as="sourcePoint" />
            <mxPoint x="48.5" y="570" as="targetPoint" />
          </mxGeometry>
        </mxCell>
        <mxCell id="9a0sQmynmuVLSiHbKFcN-65" value="" style="endArrow=classic;html=1;rounded=0;entryX=0.486;entryY=-0.026;entryDx=0;entryDy=0;entryPerimeter=0;" edge="1" parent="1">
          <mxGeometry width="50" height="50" relative="1" as="geometry">
            <mxPoint x="348.5" y="560" as="sourcePoint" />
            <mxPoint x="348.5" y="578" as="targetPoint" />
          </mxGeometry>
        </mxCell>
        <mxCell id="9a0sQmynmuVLSiHbKFcN-66" value="" style="rounded=1;whiteSpace=wrap;html=1;absoluteArcSize=1;arcSize=14;strokeWidth=2;" vertex="1" parent="1">
          <mxGeometry x="323.79999999999995" y="580" width="49.7" height="60" as="geometry" />
        </mxCell>
        <mxCell id="9a0sQmynmuVLSiHbKFcN-67" value="" style="rounded=1;whiteSpace=wrap;html=1;absoluteArcSize=1;arcSize=14;strokeWidth=2;" vertex="1" parent="1">
          <mxGeometry x="118.80000000000001" y="580" width="49.7" height="60" as="geometry" />
        </mxCell>
        <mxCell id="9a0sQmynmuVLSiHbKFcN-68" value="" style="rounded=1;whiteSpace=wrap;html=1;absoluteArcSize=1;arcSize=14;strokeWidth=2;" vertex="1" parent="1">
          <mxGeometry x="228.5" y="580" width="49.7" height="60" as="geometry" />
        </mxCell>
        <mxCell id="9a0sQmynmuVLSiHbKFcN-69" value="" style="endArrow=classic;html=1;rounded=0;entryX=0.486;entryY=-0.026;entryDx=0;entryDy=0;entryPerimeter=0;" edge="1" parent="1">
          <mxGeometry width="50" height="50" relative="1" as="geometry">
            <mxPoint x="142.5" y="560" as="sourcePoint" />
            <mxPoint x="142.5" y="578" as="targetPoint" />
          </mxGeometry>
        </mxCell>
        <mxCell id="9a0sQmynmuVLSiHbKFcN-70" value="" style="endArrow=classic;html=1;rounded=0;entryX=0.486;entryY=-0.026;entryDx=0;entryDy=0;entryPerimeter=0;" edge="1" parent="1">
          <mxGeometry width="50" height="50" relative="1" as="geometry">
            <mxPoint x="252.5" y="560" as="sourcePoint" />
            <mxPoint x="252.5" y="578" as="targetPoint" />
          </mxGeometry>
        </mxCell>
        <mxCell id="9a0sQmynmuVLSiHbKFcN-71" value="" style="endArrow=none;html=1;rounded=0;entryX=0.967;entryY=0.334;entryDx=0;entryDy=0;entryPerimeter=0;" edge="1" parent="1">
          <mxGeometry width="50" height="50" relative="1" as="geometry">
            <mxPoint x="25.5" y="600" as="sourcePoint" />
            <mxPoint x="73.55990000000003" y="600.04" as="targetPoint" />
          </mxGeometry>
        </mxCell>
        <mxCell id="9a0sQmynmuVLSiHbKFcN-72" value="" style="endArrow=none;html=1;rounded=0;entryX=0.967;entryY=0.334;entryDx=0;entryDy=0;entryPerimeter=0;" edge="1" parent="1">
          <mxGeometry width="50" height="50" relative="1" as="geometry">
            <mxPoint x="119.44" y="600" as="sourcePoint" />
            <mxPoint x="167.49990000000003" y="600.04" as="targetPoint" />
          </mxGeometry>
        </mxCell>
        <mxCell id="9a0sQmynmuVLSiHbKFcN-73" value="" style="endArrow=none;html=1;rounded=0;entryX=0.967;entryY=0.334;entryDx=0;entryDy=0;entryPerimeter=0;" edge="1" parent="1">
          <mxGeometry width="50" height="50" relative="1" as="geometry">
            <mxPoint x="229.14" y="600" as="sourcePoint" />
            <mxPoint x="277.1999" y="600.04" as="targetPoint" />
          </mxGeometry>
        </mxCell>
        <mxCell id="9a0sQmynmuVLSiHbKFcN-74" value="" style="endArrow=none;html=1;rounded=0;entryX=0.967;entryY=0.334;entryDx=0;entryDy=0;entryPerimeter=0;" edge="1" parent="1">
          <mxGeometry width="50" height="50" relative="1" as="geometry">
            <mxPoint x="324.79999999999995" y="600" as="sourcePoint" />
            <mxPoint x="372.85990000000004" y="600.04" as="targetPoint" />
          </mxGeometry>
        </mxCell>
        <mxCell id="9a0sQmynmuVLSiHbKFcN-75" value="" style="endArrow=none;html=1;rounded=0;" edge="1" parent="1">
          <mxGeometry width="50" height="50" relative="1" as="geometry">
            <mxPoint x="489.5" y="560" as="sourcePoint" />
            <mxPoint x="789.5" y="560" as="targetPoint" />
          </mxGeometry>
        </mxCell>
        <mxCell id="9a0sQmynmuVLSiHbKFcN-76" value="" style="rounded=1;whiteSpace=wrap;html=1;absoluteArcSize=1;arcSize=14;strokeWidth=2;" vertex="1" parent="1">
          <mxGeometry x="465.5" y="580" width="49.7" height="60" as="geometry" />
        </mxCell>
        <mxCell id="9a0sQmynmuVLSiHbKFcN-77" value="" style="endArrow=classic;html=1;rounded=0;entryX=0.486;entryY=-0.026;entryDx=0;entryDy=0;entryPerimeter=0;" edge="1" parent="1" target="9a0sQmynmuVLSiHbKFcN-76">
          <mxGeometry width="50" height="50" relative="1" as="geometry">
            <mxPoint x="489.5" y="560" as="sourcePoint" />
            <mxPoint x="489.5" y="570" as="targetPoint" />
          </mxGeometry>
        </mxCell>
        <mxCell id="9a0sQmynmuVLSiHbKFcN-78" value="" style="endArrow=classic;html=1;rounded=0;entryX=0.486;entryY=-0.026;entryDx=0;entryDy=0;entryPerimeter=0;" edge="1" parent="1">
          <mxGeometry width="50" height="50" relative="1" as="geometry">
            <mxPoint x="789.5" y="560" as="sourcePoint" />
            <mxPoint x="789.5" y="578" as="targetPoint" />
          </mxGeometry>
        </mxCell>
        <mxCell id="9a0sQmynmuVLSiHbKFcN-79" value="" style="rounded=1;whiteSpace=wrap;html=1;absoluteArcSize=1;arcSize=14;strokeWidth=2;" vertex="1" parent="1">
          <mxGeometry x="764.8" y="580" width="49.7" height="60" as="geometry" />
        </mxCell>
        <mxCell id="9a0sQmynmuVLSiHbKFcN-80" value="" style="rounded=1;whiteSpace=wrap;html=1;absoluteArcSize=1;arcSize=14;strokeWidth=2;" vertex="1" parent="1">
          <mxGeometry x="559.8" y="580" width="49.7" height="60" as="geometry" />
        </mxCell>
        <mxCell id="9a0sQmynmuVLSiHbKFcN-81" value="" style="rounded=1;whiteSpace=wrap;html=1;absoluteArcSize=1;arcSize=14;strokeWidth=2;" vertex="1" parent="1">
          <mxGeometry x="669.5" y="580" width="49.7" height="60" as="geometry" />
        </mxCell>
        <mxCell id="9a0sQmynmuVLSiHbKFcN-82" value="" style="endArrow=classic;html=1;rounded=0;entryX=0.486;entryY=-0.026;entryDx=0;entryDy=0;entryPerimeter=0;" edge="1" parent="1">
          <mxGeometry width="50" height="50" relative="1" as="geometry">
            <mxPoint x="583.5" y="560" as="sourcePoint" />
            <mxPoint x="583.5" y="578" as="targetPoint" />
          </mxGeometry>
        </mxCell>
        <mxCell id="9a0sQmynmuVLSiHbKFcN-83" value="" style="endArrow=classic;html=1;rounded=0;entryX=0.486;entryY=-0.026;entryDx=0;entryDy=0;entryPerimeter=0;" edge="1" parent="1">
          <mxGeometry width="50" height="50" relative="1" as="geometry">
            <mxPoint x="693.5" y="560" as="sourcePoint" />
            <mxPoint x="693.5" y="578" as="targetPoint" />
          </mxGeometry>
        </mxCell>
        <mxCell id="9a0sQmynmuVLSiHbKFcN-84" value="" style="endArrow=none;html=1;rounded=0;entryX=0.967;entryY=0.334;entryDx=0;entryDy=0;entryPerimeter=0;" edge="1" parent="1">
          <mxGeometry width="50" height="50" relative="1" as="geometry">
            <mxPoint x="466.5" y="600" as="sourcePoint" />
            <mxPoint x="514.5599" y="600.04" as="targetPoint" />
          </mxGeometry>
        </mxCell>
        <mxCell id="9a0sQmynmuVLSiHbKFcN-85" value="" style="endArrow=none;html=1;rounded=0;entryX=0.967;entryY=0.334;entryDx=0;entryDy=0;entryPerimeter=0;" edge="1" parent="1">
          <mxGeometry width="50" height="50" relative="1" as="geometry">
            <mxPoint x="560.44" y="600" as="sourcePoint" />
            <mxPoint x="608.4999" y="600.04" as="targetPoint" />
          </mxGeometry>
        </mxCell>
        <mxCell id="9a0sQmynmuVLSiHbKFcN-86" value="" style="endArrow=none;html=1;rounded=0;entryX=0.967;entryY=0.334;entryDx=0;entryDy=0;entryPerimeter=0;" edge="1" parent="1">
          <mxGeometry width="50" height="50" relative="1" as="geometry">
            <mxPoint x="670.14" y="600" as="sourcePoint" />
            <mxPoint x="718.1999000000001" y="600.04" as="targetPoint" />
          </mxGeometry>
        </mxCell>
        <mxCell id="9a0sQmynmuVLSiHbKFcN-87" value="" style="endArrow=none;html=1;rounded=0;entryX=0.967;entryY=0.334;entryDx=0;entryDy=0;entryPerimeter=0;" edge="1" parent="1">
          <mxGeometry width="50" height="50" relative="1" as="geometry">
            <mxPoint x="765.8" y="600" as="sourcePoint" />
            <mxPoint x="813.8599" y="600.04" as="targetPoint" />
          </mxGeometry>
        </mxCell>
        <mxCell id="9a0sQmynmuVLSiHbKFcN-88" value="&lt;font style=&quot;font-size: 11px;&quot;&gt;2.1&lt;/font&gt;" style="text;html=1;align=center;verticalAlign=middle;whiteSpace=wrap;rounded=0;" vertex="1" parent="1">
          <mxGeometry x="246.28" y="460" width="49.15" height="20" as="geometry" />
        </mxCell>
        <mxCell id="9a0sQmynmuVLSiHbKFcN-89" value="&lt;font style=&quot;font-size: 11px;&quot;&gt;2.2&lt;/font&gt;" style="text;html=1;align=center;verticalAlign=middle;whiteSpace=wrap;rounded=0;" vertex="1" parent="1">
          <mxGeometry x="340.29999999999995" y="460" width="49.15" height="20" as="geometry" />
        </mxCell>
        <mxCell id="9a0sQmynmuVLSiHbKFcN-90" value="&lt;font style=&quot;font-size: 11px;&quot;&gt;2.3&lt;/font&gt;" style="text;html=1;align=center;verticalAlign=middle;whiteSpace=wrap;rounded=0;" vertex="1" parent="1">
          <mxGeometry x="449.99999999999994" y="460" width="49.15" height="20" as="geometry" />
        </mxCell>
        <mxCell id="9a0sQmynmuVLSiHbKFcN-91" value="&lt;font style=&quot;font-size: 11px;&quot;&gt;2.4&lt;/font&gt;" style="text;html=1;align=center;verticalAlign=middle;whiteSpace=wrap;rounded=0;" vertex="1" parent="1">
          <mxGeometry x="545.3" y="460" width="49.15" height="20" as="geometry" />
        </mxCell>
        <mxCell id="9a0sQmynmuVLSiHbKFcN-92" value="&lt;font style=&quot;font-size: 11px;&quot;&gt;1.1&lt;/font&gt;" style="text;html=1;align=center;verticalAlign=middle;whiteSpace=wrap;rounded=0;" vertex="1" parent="1">
          <mxGeometry x="25.05" y="580" width="49.15" height="20" as="geometry" />
        </mxCell>
        <mxCell id="9a0sQmynmuVLSiHbKFcN-93" value="&lt;font style=&quot;font-size: 11px;&quot;&gt;1.2&lt;/font&gt;" style="text;html=1;align=center;verticalAlign=middle;whiteSpace=wrap;rounded=0;" vertex="1" parent="1">
          <mxGeometry x="118.8" y="580" width="49.15" height="20" as="geometry" />
        </mxCell>
        <mxCell id="9a0sQmynmuVLSiHbKFcN-94" value="&lt;font style=&quot;font-size: 11px;&quot;&gt;1.3&lt;/font&gt;" style="text;html=1;align=center;verticalAlign=middle;whiteSpace=wrap;rounded=0;" vertex="1" parent="1">
          <mxGeometry x="229.05" y="580" width="49.15" height="20" as="geometry" />
        </mxCell>
        <mxCell id="9a0sQmynmuVLSiHbKFcN-95" value="&lt;font style=&quot;font-size: 11px;&quot;&gt;1.4&lt;/font&gt;" style="text;html=1;align=center;verticalAlign=middle;whiteSpace=wrap;rounded=0;" vertex="1" parent="1">
          <mxGeometry x="324.35" y="580" width="49.15" height="20" as="geometry" />
        </mxCell>
        <mxCell id="9a0sQmynmuVLSiHbKFcN-96" value="&lt;font style=&quot;font-size: 11px;&quot;&gt;3.1&lt;/font&gt;" style="text;html=1;align=center;verticalAlign=middle;whiteSpace=wrap;rounded=0;" vertex="1" parent="1">
          <mxGeometry x="465.78000000000003" y="580" width="49.15" height="20" as="geometry" />
        </mxCell>
        <mxCell id="9a0sQmynmuVLSiHbKFcN-97" value="&lt;font style=&quot;font-size: 11px;&quot;&gt;3.2&lt;/font&gt;" style="text;html=1;align=center;verticalAlign=middle;whiteSpace=wrap;rounded=0;" vertex="1" parent="1">
          <mxGeometry x="559.8000000000001" y="580" width="49.15" height="20" as="geometry" />
        </mxCell>
        <mxCell id="9a0sQmynmuVLSiHbKFcN-98" value="&lt;font style=&quot;font-size: 11px;&quot;&gt;3.3&lt;/font&gt;" style="text;html=1;align=center;verticalAlign=middle;whiteSpace=wrap;rounded=0;" vertex="1" parent="1">
          <mxGeometry x="669.5000000000001" y="580" width="49.15" height="20" as="geometry" />
        </mxCell>
        <mxCell id="9a0sQmynmuVLSiHbKFcN-99" value="&lt;font style=&quot;font-size: 11px;&quot;&gt;3.4&lt;/font&gt;" style="text;html=1;align=center;verticalAlign=middle;whiteSpace=wrap;rounded=0;" vertex="1" parent="1">
          <mxGeometry x="764.8000000000001" y="580" width="49.15" height="20" as="geometry" />
        </mxCell>
        <mxCell id="9a0sQmynmuVLSiHbKFcN-100" value="&lt;font style=&quot;font-size: 8px;&quot;&gt;Lap. data&lt;/font&gt;&lt;div&gt;&lt;font style=&quot;font-size: 8px;&quot;&gt;pegawai&lt;/font&gt;&lt;/div&gt;" style="text;html=1;align=center;verticalAlign=middle;whiteSpace=wrap;rounded=0;" vertex="1" parent="1">
          <mxGeometry x="251.28" y="480" width="39.14" height="35" as="geometry" />
        </mxCell>
        <mxCell id="9a0sQmynmuVLSiHbKFcN-101" value="&lt;font style=&quot;font-size: 8px;&quot;&gt;Lap. data&lt;/font&gt;&lt;div&gt;&lt;span style=&quot;font-size: 8px;&quot;&gt;Jabatan&lt;/span&gt;&lt;/div&gt;" style="text;html=1;align=center;verticalAlign=middle;whiteSpace=wrap;rounded=0;" vertex="1" parent="1">
          <mxGeometry x="345.29999999999995" y="480" width="39.14" height="35" as="geometry" />
        </mxCell>
        <mxCell id="9a0sQmynmuVLSiHbKFcN-102" value="&lt;font style=&quot;font-size: 8px;&quot;&gt;Lap. data&lt;/font&gt;&lt;div&gt;&lt;span style=&quot;font-size: 8px;&quot;&gt;terintegrasi&lt;/span&gt;&lt;/div&gt;" style="text;html=1;align=center;verticalAlign=middle;whiteSpace=wrap;rounded=0;" vertex="1" parent="1">
          <mxGeometry x="455.28" y="480" width="39.14" height="35" as="geometry" />
        </mxCell>
        <mxCell id="9a0sQmynmuVLSiHbKFcN-103" value="&lt;font style=&quot;font-size: 8px;&quot;&gt;Lap. data&lt;/font&gt;&lt;div&gt;&lt;span style=&quot;font-size: 8px;&quot;&gt;tersimpan&lt;/span&gt;&lt;/div&gt;" style="text;html=1;align=center;verticalAlign=middle;whiteSpace=wrap;rounded=0;" vertex="1" parent="1">
          <mxGeometry x="550.3" y="480" width="39.14" height="35" as="geometry" />
        </mxCell>
      </root>
    </mxGraphModel>
  </diagram>
</mxfile>
